<?xml version="1.0" standalone="no"?>
<!DOCTYPE svg PUBLIC "-//W3C//DTD SVG 20010904//EN"
 "http://www.w3.org/TR/2001/REC-SVG-20010904/DTD/svg10.dtd">
<svg version="1.0" xmlns="http://www.w3.org/2000/svg"
 width="908.000000pt" height="908.000000pt" viewBox="0 0 908.000000 908.000000"
 preserveAspectRatio="xMidYMid meet">
<metadata>
Created by potrace 1.11, written by Peter Selinger 2001-2013
</metadata>
<g transform="translate(0.000000,908.000000) scale(0.100000,-0.100000)"
fill="#000000" stroke="none">
<path d="M4248 8365 c-2 -2 -43 -6 -91 -10 -48 -3 -102 -8 -120 -10 -18 -2
-72 -9 -122 -15 -414 -50 -909 -187 -1290 -357 -244 -109 -557 -283 -728 -405
-77 -55 -259 -190 -267 -198 -3 -3 -34 -30 -70 -60 -136 -115 -318 -292 -420
-410 -30 -35 -59 -68 -65 -74 -23 -25 -125 -156 -172 -221 -215 -297 -412
-681 -513 -1000 -12 -38 -26 -83 -30 -100 -5 -16 -16 -55 -24 -85 -9 -30 -18
-68 -21 -85 -3 -16 -10 -46 -15 -65 -5 -19 -12 -48 -14 -65 -3 -16 -8 -40 -10
-51 -6 -30 -13 -76 -25 -169 -6 -44 -13 -98 -16 -120 -10 -69 -13 -516 -4
-610 9 -100 17 -167 24 -205 2 -14 7 -43 10 -65 11 -74 17 -105 60 -295 38
-172 155 -488 253 -685 189 -381 423 -705 733 -1014 395 -396 865 -707 1407
-934 182 -76 570 -202 692 -224 14 -2 50 -10 80 -18 58 -15 305 -60 380 -69
164 -21 207 -25 314 -33 194 -15 757 -7 854 12 11 2 49 6 84 10 35 3 74 8 88
10 14 3 41 7 60 10 209 33 425 80 618 136 101 29 313 100 357 120 11 4 55 22
97 39 43 16 86 34 95 39 10 5 36 17 58 26 66 28 295 144 370 187 408 234 771
527 1065 858 36 40 70 78 75 84 6 6 26 31 46 56 289 364 491 729 628 1135 43
130 106 363 116 435 3 25 8 52 11 61 6 22 12 65 34 244 13 116 17 207 14 405
-1 140 -5 266 -7 280 -3 14 -8 50 -11 80 -14 117 -19 149 -48 285 -37 177 -36
172 -47 209 -5 17 -24 78 -41 136 -60 196 -182 480 -280 650 -23 41 -51 89
-60 106 -34 60 -133 209 -183 279 -593 813 -1499 1397 -2547 1641 -57 13 -116
27 -130 29 -70 13 -139 25 -174 31 -21 3 -48 7 -59 10 -38 7 -172 24 -237 29
-36 3 -85 8 -110 11 -48 6 -667 14 -672 9z m502 -199 c80 -3 168 -8 195 -10
60 -6 174 -18 195 -21 8 -1 35 -5 60 -9 49 -6 250 -42 290 -51 14 -3 38 -8 54
-11 16 -2 32 -7 36 -9 4 -2 20 -7 36 -10 16 -3 63 -14 104 -25 41 -12 82 -22
90 -24 49 -12 266 -87 385 -133 165 -64 459 -206 600 -290 212 -126 440 -289
615 -442 91 -79 307 -294 378 -377 262 -303 481 -663 620 -1014 93 -235 174
-542 198 -750 2 -19 6 -46 9 -60 25 -131 25 -626 1 -780 -2 -14 -7 -47 -11
-73 -4 -27 -8 -58 -11 -70 -2 -12 -6 -37 -9 -57 -19 -125 -72 -327 -133 -500
-141 -405 -390 -827 -682 -1154 -69 -78 -258 -268 -325 -326 -33 -29 -73 -65
-90 -79 -16 -15 -88 -71 -160 -124 -71 -54 -135 -101 -140 -106 -28 -21 -241
-153 -322 -200 -92 -52 -386 -196 -453 -221 -19 -7 -48 -19 -65 -26 -254 -108
-704 -228 -1005 -269 -25 -3 -56 -8 -70 -10 -14 -3 -56 -7 -95 -11 -38 -3 -83
-8 -100 -9 -233 -25 -695 -20 -925 10 -214 28 -361 53 -480 82 -36 8 -76 17
-89 20 -37 6 -214 57 -326 93 -288 93 -707 286 -923 427 -166 107 -202 132
-297 204 -318 239 -645 570 -825 835 -19 27 -36 51 -40 54 -6 5 -90 140 -154
247 -88 149 -195 383 -262 573 -30 88 -79 251 -88 296 -3 10 -10 42 -16 69
-30 128 -58 311 -68 440 -13 177 -7 521 13 665 2 14 6 45 9 70 3 25 8 56 11
70 2 14 6 36 9 50 8 49 57 260 71 307 8 26 14 50 14 53 0 3 14 46 32 95 121
345 271 634 477 920 132 183 213 276 392 455 243 243 475 424 775 605 117 70
332 181 455 235 41 18 89 39 105 46 248 111 664 227 995 279 19 3 46 7 60 10
40 7 90 13 165 20 39 4 79 9 89 11 10 2 87 6 170 10 83 4 152 7 153 8 2 1 127
-2 303 -8z"/>
<path d="M4417 8074 c-1 -1 -63 -4 -137 -8 -74 -3 -144 -8 -155 -10 -11 -2
-51 -7 -90 -10 -38 -4 -81 -8 -95 -10 -14 -3 -59 -10 -100 -16 -63 -9 -163
-28 -245 -44 -236 -49 -589 -163 -825 -268 -165 -73 -408 -202 -508 -269 -24
-16 -46 -29 -49 -29 -13 0 -361 -253 -383 -279 -3 -3 -27 -24 -55 -46 -53 -42
-324 -309 -391 -385 -401 -456 -694 -1064 -788 -1635 -45 -274 -54 -639 -22
-895 9 -73 18 -138 23 -165 3 -16 7 -39 8 -50 2 -11 8 -40 14 -65 5 -25 12
-59 15 -76 7 -40 89 -312 114 -379 36 -96 116 -280 133 -305 9 -14 20 -36 24
-49 9 -29 132 -242 188 -326 230 -345 537 -669 872 -922 533 -402 1183 -673
1875 -782 69 -11 152 -23 185 -26 33 -4 76 -8 95 -10 198 -23 692 -23 840 0
14 2 55 6 91 10 36 3 76 7 90 10 13 2 42 6 64 10 116 16 287 51 425 86 553
139 1053 377 1505 717 55 42 111 86 125 98 14 12 48 41 75 65 61 53 317 308
366 365 19 23 60 72 90 110 29 38 58 74 62 79 87 105 250 370 343 555 139 278
262 676 299 965 4 28 9 61 11 75 18 118 24 469 11 634 -35 419 -145 804 -342
1191 -136 268 -287 493 -484 720 -54 62 -320 324 -387 381 -116 100 -451 344
-470 344 -3 0 -25 14 -49 30 -24 17 -46 30 -48 30 -3 0 -38 19 -79 43 -233
136 -631 301 -896 373 -110 30 -288 72 -347 84 -109 20 -219 38 -280 45 -33 4
-71 9 -85 11 -122 15 -291 25 -478 28 -84 1 -154 1 -155 0z"/>
</g>
</svg>
